<svg id="Layer_1" data-name="Layer 1" xmlns="http://www.w3.org/2000/svg" viewBox="0 0 3855.564 1933.989"><path d="M347.149,148.5c24.789,2.916,49.7,4.833,74.559,7.12,19.553,1.8,39.1,3.707,58.665,5.315,20.568,1.69,41.162,3.075,61.744,4.6,24.227,1.8,48.448,3.69,72.682,5.392,13.613.956,27.24,1.786,40.874,2.364,21.955.932,43.923,1.581,65.883,2.4q53.9,2.012,107.8,4.07c18.631.681,37.264,1.481,55.9,1.75,50.3.726,100.6,1.714,150.894,1.571,29.936-.086,59.867-2.119,89.8-3.264,19.639-.75,39.293-1.207,58.914-2.276,30.567-1.665,61.117-3.672,91.666-5.662,20.26-1.319,40.529-2.592,60.751-4.374,24.2-2.134,48.373-4.678,72.536-7.248,26.153-2.783,52.284-5.775,78.419-8.731,8.273-.936,16.511-2.2,24.794-3.029,5.9-.593,7.5,1.338,5.184,6.964-5.953,14.482-12.308,28.8-18.51,43.179q-40.973,95-81.943,190-21.755,50.486-43.383,101.026c-9.409,22.058-18.6,44.21-27.894,66.317-3.9,9.28-4.613,9.716-14.088,5.823-61.436-25.242-124.468-45.725-188.545-63.026-19.941-5.384-40.117-9.914-60.231-14.637-8.36-1.963-9.236-1.219-9.25,7.56-.041,26.332-.062,52.666.181,79,.521,56.636,1.275,113.27,1.819,169.907q1.11,115.448,2.055,230.9.993,110.446,2.024,220.893,1.01,109.447,2.089,218.9c.059,5.638,1.164,11.258,1.421,16.9.393,8.6-1.237,10.519-9.807,11.64-35.057,4.585-69.815,10.708-103.994,19.875a859.591,859.591,0,0,0-123.4,43.366,825.682,825.682,0,0,0-84.639,42.9c-20.108,11.753-39.561,24.64-59.152,37.26-6.705,4.319-7.1,6.449-.711,11.142,16.62,12.216,33.325,24.413,50.761,35.406,58.326,36.777,122.361,58.74,189.916,70.761,29.506,5.25,59.263,8.937,89.352,9.165,10.637.081,21.287,1.752,31.9,1.459,65.895-1.814,130.683-11.285,194.1-29.459,19.528-5.6,38.852-11.908,58.254-17.942,12.072-3.754,13.723-2.975,19.226,8.539q15.508,32.449,31.228,64.8c6.905,14.128,15.185,27.36,26.3,38.671,7.033,7.157,6.868,8.586-2.248,12.288q-29.178,11.849-58.577,23.149a1953.77,1953.77,0,0,1-192.886,62.808,1425.084,1425.084,0,0,1-157.467,32.832c-23.019,3.434-46.338,4.879-69.534,7.1-28.858,2.757-57.8,4.567-86.779,3.589-51.651-1.741-102.961-6.265-153.52-18.03-50.943-11.854-99.741-29.239-145.929-53.711a820.062,820.062,0,0,1-93.254-58.12c-50.057-35.824-95.447-76.909-137.428-121.73a1005.773,1005.773,0,0,1-85.12-104.552A1308.772,1308.772,0,0,1,117.4,1408.808a1598.442,1598.442,0,0,1-84.553-191.961c-11.106-30.341-20.8-61.2-31.491-91.695-2.481-7.078-1.581-12.71,2.892-18.559,19.226-25.144,37.821-50.781,57.443-75.608,27.877-35.272,55.942-70.422,84.88-104.823,27.856-33.115,56.675-65.433,85.547-97.674,19.1-21.332,38.973-41.98,58.638-62.805,19.21-20.344,38.453-40.66,57.951-60.728,14.6-15.028,29.58-29.694,44.482-44.429,26.528-26.228,52.868-52.653,79.766-78.5,25.93-24.913,52.423-49.243,78.77-73.721,6.575-6.108,6.764-7.757-.226-12.891-35.2-25.853-74.615-38.769-118.316-39.882A284.232,284.232,0,0,0,332.04,471.671c-49.411,17.163-98.443,35.447-147.386,53.919-39.277,14.825-78.178,30.648-117.263,45.985-2.394.939-4.936,1.5-7.41,2.235l-1.736-1.739c3.928-6.444,7.685-13,11.813-19.314q42.4-64.855,84.917-129.638,66.372-101.727,132.591-203.555c13.843-21.214,28.145-42.128,41.948-63.367,4.387-6.749,9.527-8.654,17.635-7.7m360.72,717.21,1.557-.066c-1.737-35.559-3.37-71.123-5.242-106.675-1.791-34.034-7.673-67.474-15.587-100.556-2.24-9.364-5.591-18.468-8.578-27.644-1.069-3.283-3.286-4.052-6.1-1.754-1.287,1.05-2.451,2.254-3.642,3.418-35.061,34.249-68.453,69.963-97.492,109.59-20.117,27.452-38.752,55.851-54.61,85.952-25.319,48.064-43.937,98.607-52.524,152.392-4.089,25.609-7.906,51.451-8.975,77.306-1.552,37.553-1.743,75.194,3.35,112.71a564.762,564.762,0,0,0,24.116,105c13.553,40.165,30.921,78.664,50.8,116.111a672.136,672.136,0,0,0,71.755,108.04c5.011,6.186,6.445,6.591,11.562.607,8.642-10.108,17.261-20.351,24.726-31.328,20.491-30.131,32.851-63.922,41.851-98.918,10.337-40.2,13.154-81.43,15.027-122.7.981-21.611,1.35-43.25,1.923-64.879q1.1-41.435,2.077-82.872c.644-25.963,1.354-51.924,1.907-77.889q1.147-53.928,2.064-107.86C708.077,897.7,707.869,881.7,707.869,865.706Z" transform="translate(0 0)" style="fill:#2cbaff"/><path d="M2843.861,708.059c4.935-3.831,9.91-7.612,14.791-11.51a99.429,99.429,0,0,0,9.88-8.4c10-10.414,8.369-25.584-3.521-33.722-7.389-5.057-15.608-8.111-24.542-6.4-13.709,2.634-27.269,6.038-40.888,9.136-.641.145-1.219.55-1.854.74-34.566,10.35-62.913,31.507-91.264,52.619-12.025,8.954-23.814,18.226-35.781,27.26-2.519,1.9-5.347,3.393-10.111,6.374,1.306-4.521,1.669-6.69,2.539-8.633,4.258-9.51,4.864-18.8-2.217-27.206-6.718-7.98-15.522-9.737-25.386-7.3-.324.08-.646.17-.972.235-9.724,1.937-9.668,1.908-14.367-7.357-5.125-10.1-10-20.36-15.626-30.178-15.864-27.669-35.948-52.029-59.112-73.9-2.6-2.456-5-5.128-8.215-8.444,5.56-3.556,10.847-3.434,15.959-3.756,24.586-1.551,49.258-2.23,73.747-4.724,35.105-3.575,70.123-8.115,105.1-12.855,64.152-8.694,127.388-22.184,189.792-39.208,39.519-10.781,78.488-23.583,117.684-35.54,2.063-.629,3.95-1.833,7.749-3.639-7.05-3.06-12.411-5.488-17.848-7.731a1222.612,1222.612,0,0,0-264.762-75.613c-41.018-6.882-82.406-11.716-123.736-16.533a1262.1,1262.1,0,0,0-144.542-8.248c-22.974-.031-45.947-.906-68.92-1.456-2.821-.068-5.634-.493-10.594-.95,3.53-3.04,5.257-4.884,7.306-6.241q116.7-77.3,233.445-154.529c40.567-26.875,81.216-53.634,121.446-81.006,9.812-6.676,19.134-8.907,30.859-6.764,47.184,8.624,94.742,15.335,141.727,24.892,101.121,20.568,199.934,49.243,295.393,88.819,75.372,31.249,147,69.435,213.8,116.423A873.054,873.054,0,0,1,3588.7,462.7a901.664,901.664,0,0,1,147.468,204.412c51.52,97.6,84.09,201.412,102.429,309.983,7.219,42.738,11.733,85.773,15.4,128.918.79,9.286.879,18.631,1.537,27.932.4,5.636-3.3,8.263-7.1,11.125q-36.319,27.384-72.562,54.87-123.585,93.473-247.171,186.944-76.533,57.9-153.019,115.871-70.893,53.754-141.72,107.6-17.918,13.592-36.015,26.945c-1.754,1.3-3.858,2.123-6.708,3.654,0-2.641-.341-4.284.069-5.713a64.5,64.5,0,0,1,3.381-9.393c15.414-33.131,15.382-68.465,14.692-103.843a55.437,55.437,0,0,0-2.917-15.68c-6.244-19.335-12.772-38.581-19.445-57.773-1.181-3.4-3.418-6.472-5.413-9.535-4.911-7.541-10.324-14.776-14.89-22.514-11.54-19.553-27.278-35.184-44.732-49.33-4.914-3.982-9.582-8.268-14.412-12.355-11.512-9.742-23.8-18.244-38.083-23.494a5.446,5.446,0,0,1-.895-.445c-33.308-19.845-70.074-29.292-108-33.674-20.059-2.318-40.617-1.9-60.836-.745-16.63.953-25.633,13.477-23.406,28.6,1.417,9.626,8.317,14.966,15.878,19.378a168.365,168.365,0,0,0,20.6,10.183c17.659,7.286,29.153,21.807,41.722,35.032,2.426,2.554,3.895,6.222,5.183,9.613,3.669,9.653,7.47,19.3,10.306,29.209,1.514,5.288,1.325,11.107,1.541,16.7.1,2.621-.935,5.271-.982,7.916-.4,22.505-12.131,38.854-28.5,52.669-5.09,4.3-10.34,8.41-15.612,12.484-12.761,9.862-28.254,13.061-43.207,17.563-9.24-2.575-18.591-4.818-27.664-7.886-3.784-1.279-2-4.861-1.142-7.789,2.9-9.866,6.382-19.649,8.187-29.725,2.344-13.088,4.269-26.4,4.546-39.661.233-11.207-1.374-22.618-3.534-33.671-3.314-16.953-5.137-34.934-12.364-50.224-13.615-28.8-29-57.166-55.552-77.079-4.236-3.177-7.7-7.369-11.645-10.951-15.386-13.961-35.369-8.525-40.383,11.391-2.005,7.966-2.387,16.376-3.1,24.619a139.3,139.3,0,0,0-.064,14.991c.565,26.37-11.578,46.219-32.842,60.269-6.9,4.559-16.091,7.146-24.433,7.713-16.381,1.113-32.489-.914-46.237-11.826-35.226-27.961-70.633-55.692-105.968-83.515-1.047-.824-2.177-1.561-3.133-2.48-4.242-4.074-4.436-6.007-.4-9.916q13.28-12.87,26.821-25.469c13.909-12.92,28-25.645,41.885-38.594,18.029-16.814,35.865-33.837,53.937-50.6a17.062,17.062,0,0,0,5.6-12.294c2.053-33.895,4.438-67.772,6.215-101.681,1.1-20.946,1.485-41.935,1.822-62.911.1-6.374,1.595-11.619,6.254-16.168,3.8-3.708,7.016-8.009,10.449-12.084,18.239-21.654,41.489-37.26,66.967-47.808,24.381-10.094,50.031-18.713,77.436-17.294a89.891,89.891,0,0,0,11.993.028c30.058-2.481,57.084,7.338,83.347,20.329,4.182,2.069,8.383,4.108,12.482,6.334,8.921,4.844,17.555,4.374,26.763.174,20.3-9.257,40.788-18.094,61.344-26.761,11.382-4.8,12.866-3.426,13.421,9.17,2.262,51.289,4.958,102.554,19.835,152.174,5.93,19.779,12.585,39.342,18.943,58.992.922,2.852,2.138,5.61,3.032,8.47,2.444,7.814,2,8.218-6.506,8.141-21.662-.2-43.336-.774-64.986-.3a492.269,492.269,0,0,0-103.869,13.445c-23.294,5.572-46.162,12.941-69.163,19.7-5.066,1.49-9.888,3.81-15.091,5.854.494,4.517,4.028,5.616,6.643,7.215,30.132,18.425,59.845,37.606,90.64,54.853q50.109,28.062,101.916,53.062c54.511,26.2,110.813,47.722,170.808,57.945,27.346,4.66,54.875,6.133,82.524,2.681,34.539-4.313,64.245-19.179,90.26-41.8,28.874-25.105,53.639-53.579,72.045-87.425A329.387,329.387,0,0,0,3467.762,1117c5.7-38.765,5.657-77.652,2.459-116.617-5.5-67.022-24.735-130.129-55.076-189.843a615.181,615.181,0,0,0-86.866-127.816c-57.4-65.3-125.231-117.4-200.513-160.245-4.054-2.307-8.033-4.758-12.162-6.921-8.931-4.679-10.105-4.425-15.11,3.937-5.3,8.863-10.871,17.625-15.406,26.88-11.137,22.732-22.186,45.528-32.447,68.664-10.314,23.256-16.784,47.742-20.355,72.961-.187,1.319-.354,2.648-.661,3.941-1.712,7.195-3.26,8.391-10.339,7.43-3.957-.537-7.883-1.371-11.78-2.26-24.7-5.634-49.584-4.388-74.516-2.147-8.951.8-18.077.415-26.879,1.961-16.7,2.934-33.229,6.852-49.82,10.409-4.474.959-8.911,2.087-13.366,3.137Q2844.393,709.266,2843.861,708.059Z" transform="translate(0 0)" style="fill:#f32654"/><path d="M1477.341,1089.191c3.117-2.162,5.075-2.936,6.169-4.369,12.073-15.807,27.989-27.484,43.09-39.978,11.277-9.331,22.978-18.187,34.863-26.735,8.781-6.316,17.093-3.191,19.286,7.484,1.159,5.645,1.245,12.224-.531,17.607-3.318,10.052-7.394,20.132-12.956,29.08-4.719,7.591-.021,13.844,7.548,13.192a112.161,112.161,0,0,0,18.57-3.239c12.008-3.132,23.63-7.232,32.24-16.957a6.948,6.948,0,0,1,2.458-1.644,5.639,5.639,0,0,1,2.118.081c-.662,7.174-1.37,14.342-1.956,21.52a33.324,33.324,0,0,0,.1,5.992c.74,7.4,3.849,9.545,10.7,6.769a76.714,76.714,0,0,0,27.585-19.4c4.292-4.642,8-9.866,12.54-14.226a73.614,73.614,0,0,1,14.082-10.888c5.122-2.932,10.794-2.652,16.163.63q20,12.222,40.168,24.155c8.887,5.254,18.006,10.116,26.853,15.435,5.281,3.175,5.64,4.445,1.923,9.462-15.733,21.234-28.645,44.141-40.384,67.723a430.012,430.012,0,0,0-29.743,78.3,370.061,370.061,0,0,0-11.1,61.769,374.489,374.489,0,0,0,3.437,89.38,291.683,291.683,0,0,0,9.931,39.607c10.686,33.453,28.46,63.026,51.189,89.666,10.683,12.521,23.6,22.544,37.133,31.714,25.753,17.454,54.065,28.237,84.861,33.327,33.168,5.483,65.062,1.238,96.21-10.165,39.307-14.39,73.377-37.385,105.011-64.468a512.737,512.737,0,0,0,49.443-47.8c27.117-30.379,51.819-62.587,72.412-97.815.673-1.151,1.234-2.377,2-3.459,4.022-5.672,7.021-6.163,12.219-1.553,7.469,6.623,14.661,13.558,22.112,20.2q33.16,29.572,66.439,59.011c18.944,16.764,38.133,33.257,56.867,50.252,9.373,8.5,9.222,10.385,3.206,21.516-12.664,23.433-24.492,47.366-38.179,70.184-14.2,23.679-29.756,46.59-45.513,69.285-22.469,32.361-48.353,61.981-76.568,89.408-24.606,23.92-50.8,46.09-79.418,65.2-42.956,28.687-89.084,50.691-138.7,65.142-31.373,9.139-63.255,15.668-95.92,18.463-21.567,1.847-43.072,4.285-64.753,3.5-8.3-.3-16.58-1.209-24.871-1.814-57.1-4.169-111.457-18.832-163.3-42.964a418.951,418.951,0,0,1-105.25-70.022c-11.5-10.44-21.009-23.13-30.98-35.163-11.895-14.355-23.207-29.191-35.007-43.626a51.708,51.708,0,0,0-10.228-9.457c-5.483-3.847-9.5-3.1-14.243,1.62-4.534,4.508-6.854,10.222-6.233,16.324,1.344,13.207,3.225,26.377,5.408,39.474.978,5.871,3.305,11.507,4.826,17.3a23.577,23.577,0,0,1,1.122,7.791c-.3,3.443-2.728,4.474-5.741,2.741a19.339,19.339,0,0,1-4.562-3.833c-22.323-24.709-44.314-49.648-62.006-78.079a464.519,464.519,0,0,1-46.267-98.211c-10.761-32.083-17.243-64.977-22.445-98.222-1.488-9.509-1.89-19.2-2.567-28.82-1.821-25.9-3.567-51.769-.444-77.752,2.5-20.8,3.132-41.84,6.171-62.542a757.729,757.729,0,0,1,26.764-115.713,118.133,118.133,0,0,0,5.137-26.339c.747-10.238-5.683-15.154-15.336-11.7-6.06,2.17-11.828,6.205-16.629,10.6-7.834,7.174-14.775,15.325-22.084,23.071-.685.725-1.17,1.768-1.991,2.206-1.384.737-3.644,1.976-4.316,1.448-1.306-1.023-2.6-3.212-2.438-4.766.937-8.936,1.849-17.917,3.6-26.717a404.776,404.776,0,0,1,35.036-102.744c19.393-38.752,43.956-73.888,72.414-106.216,21.121-23.993,44.18-46.246,69.745-65.677,4.239-3.223,8.258-6.8,12.758-9.6,6.8-4.234,11.478-3.169,14.56,3.986a66.929,66.929,0,0,1,4.776,18.137c1.729,14.114-2.1,27.811-4.415,41.571-3.315,19.686-7.6,39.227-10.352,58.985-2.429,17.44-3.388,35.09-4.832,52.66C1476.117,1082.021,1476.831,1084.629,1477.341,1089.191Z" transform="translate(0 0)" style="fill:#ffd64d"/><path d="M2216.789,1167.842c4.929-2.771,8.022-4.565,11.165-6.266,7.521-4.07,13.157-9.934,17.707-17.183,4.719-7.517,5.559-15.2,1.156-22.67-3.322-5.632-7.214-11.488-12.261-15.448-23.315-18.294-46.885-36.286-70.838-53.735-16.163-11.775-33-22.9-53.007-27.157-35.736-7.6-65.226,6.635-82.744,37.647a61.1,61.1,0,0,0-6.093,46.559c4.344,15.7,9.936,31.093,15.7,46.348,4.993,13.218,7.666,26.634,9.137,40.721,1.4,13.447.228,26.562-.562,39.8-.52,8.719,2.99,14.545,9.4,20.662a86.369,86.369,0,0,0,44.536,23.11c2.826.544,5.246,3.2,7.853,4.877-2.113,1.956-3.951,4.4-6.391,5.776-7.307,4.131-15.032,6.873-23.676,7.07-9.531.218-9.965.952-12.177,10.829-2.833,12.646-10.371,19.212-23.322,18.628-17.422-.784-32.947-6.558-42.4-22.269a182.947,182.947,0,0,1-13.773-28.751c-8.744-22.8-13.113-46.781-17.979-70.614-2.6-12.73-5.663-25.367-8.208-38.108-1.3-6.488-4.839-9.617-11.356-10.564-9.224-1.339-18.357-3.311-27.517-5.074a30.673,30.673,0,0,1-6.742-1.745c-4.32-1.933-4.695-6.339-.325-8.125,3.791-1.55,8.3-1.649,12.507-1.782,3.516-.111,7.06.656,10.942,1.072.549-4.931-2.734-5.908-5.04-7.3a147.981,147.981,0,0,0-47.289-18.368c-18.6-3.789-37.315-7.009-55.971-10.526-3.555-.671-7.065-1.573-11.847-2.65,6.564-9.134,19.142-7.34,25.182-16.591a55.3,55.3,0,0,0-5.778-2.361c-23.565-6.478-46.16-15.225-67.078-28.059-12.209-7.49-24.642-14.616-36.848-22.11-18.594-11.416-43.78-10.16-60.968,3.513-6.686,5.319-12.975,11.138-20.431,17.582a28.05,28.05,0,0,1,.631-20.076c2.348-6.07,5.985-11.642,9.355-17.993-4.671-1.574-6.692,1.987-9.208,4.053-15.685,12.88-31.229,25.936-47.054,38.641-3.381,2.714-7.729,4.225-11.631,6.29l-1.66-1.921c1.852-2.964,3.584-6.011,5.575-8.878,7.464-10.745,10.852-22.526,10.861-35.695.007-10.017-4.02-17.236-11.7-22.961-3.091-2.3-6.178-4.613-10.1-7.538,2.326-1.427,3.319-2.488,4.447-2.659,15.532-2.353,26.065-12.76,36.665-22.888,4.6-4.392,3.567-7.168-3.017-8.484-6.194-1.237-12.59-1.467-18.775-2.735-8.135-1.667-16.167-3.858-24.212-5.94-4.189-1.084-6.289-3.849-7.881-8.068-4.334-11.488-8.534-23.192-14.484-33.865-8.88-15.927-12.551-32.79-13.357-50.68-.43-9.571-1.482-19.114-2.325-29.551-3.044.841-5.417.983-7.213,2.076-11.368,6.915-23.083,13.394-33.784,21.242-17.945,13.161-35.423,26.984-52.7,41.014-12.65,10.271-24.8,21.17-36.921,32.077-8.627,7.766-16.831,16-25.2,24.051-.716.687-1.137,1.827-1.955,2.234-1.976.983-4.413,2.667-6.085,2.16-1.562-.473-3.259-3.364-3.35-5.264a65.287,65.287,0,0,1,.737-14.9c5.338-28.806,16.379-55.542,30.6-80.976a296.757,296.757,0,0,1,35.352-49.549,23.081,23.081,0,0,0,1.962-2.262c2.3-3.482,1.218-5.833-3.122-5.656a49.468,49.468,0,0,0-11.7,2.194c-6.968,2.038-13.823,4.462-21.223,5.944,2.547-6.2,8.916-8.018,13.232-12.046,4.628-4.318,9.286-8.622,13.658-13.194,4.339-4.537,8.339-9.4,12.7-14.365-3.427-3.869-7.155-2.494-10.536-2.086a197.821,197.821,0,0,1-89.606-9.588c-1.259-.436-2.786-.618-3.688-1.456a59.261,59.261,0,0,1-4.768-5.554c1.91-1.131,3.686-2.8,5.75-3.311,24.279-6.053,47.491-15.081,70.491-24.767,14.11-5.942,28.81-10.67,42.423-17.564,23.574-11.938,45.281-26.741,62.95-46.846a38.964,38.964,0,0,0,8.917-17.123c-3.714.616-6.543.637-9.032,1.568-21.072,7.88-41.39,3.031-61.623-3.427a13.079,13.079,0,0,1-4.376-2.331c-2.419-2.038-1.976-4.009.775-5.408a24.415,24.415,0,0,1,2.854-.872c13.138-4.718,26.464-8.981,39.361-14.286a168.2,168.2,0,0,0,56.929-38.028c6.894-7.048,13.838-14.048,22.262-22.595-20.818.943-40.242,5.216-56.32-11.825,2.918-1.317,5.011-2.839,7.289-3.2,29.495-4.688,55.947-17.045,81.216-32.258a117.918,117.918,0,0,0,17.661-13.011c5.224-4.667,4.712-8.27-1.525-11.618-9.452-5.074-16.28-12.555-21.83-21.437-3.061-4.9-3.144-5.744-2.357-12,.952.14,2.127-.035,2.815.462,19.065,13.778,41.572,15.4,63.736,17.6,27.469,2.72,55.175,3.159,82.418,8.021,13.423,2.4,26.68,5.72,40,8.664,4.172.922,8.315,1.973,14.155,3.367-1.84-13.032-5.348-24.133-8.146-36.337,2.1,1.681,4.327,3.225,6.276,5.065,9.178,8.663,18.136,17.563,27.447,26.079,9.568,8.751,19.462,17.148,29.194,25.722,1.248,1.1,2.31,2.415,3.579,3.487,5,4.229,7.322,3.83,8.869-2.758,3.46-14.735,12.055-26.525,20.448-38.581,5.06-7.268,11.437-12.919,18.587-17.905,32.953-22.979,69.7-35.893,109.355-40.755,14.513-1.78,29.138-2.724,43.736-3.677a40.343,40.343,0,0,1,11.838,1.436c4.918,1.184,5.446,2.693,2.519,6.943-7.744,11.242-15.762,22.294-23.521,33.526-17.149,24.825-31.142,51.193-39.443,80.392-3.949,13.887-2.1,27.709-.531,41.617,1.225,10.893,2.552,21.8,3.037,32.742.274,6.2-1.056,12.468-1.66,18.669,8-2.662,8.8-3.828,13.311-19.846,7.743,4.712,11.638,11.584,13.662,19.816a10.8,10.8,0,0,1,.518,2.946c-1.3,29.569,17.1,48.229,37.541,64.722,22.008,17.757,45.641,33.487,68.134,50.665,12.137,9.27,23.661,19.4,34.949,29.711,16.266,14.852,20.7,33.466,16.05,54.7-1.778,8.115-3.329,16.318-4.3,24.561-1.123,9.577,2.409,17.787,9.63,24.1,10.019,8.758,20.021,17.572,30.5,25.763,25.975,20.308,52.441,39.992,78.271,60.481,16.681,13.231,33.122,26.864,48.715,41.345,22.691,21.074,44.748,42.848,66.636,64.761,13.674,13.689,25.97,28.615,34.888,46a65.461,65.461,0,0,1,3.161,6.227c3.644,9.485,1.463,14.272-8.2,17.555a107.109,107.109,0,0,1-12.556,3.264c-14.773,3.09-29.193,7.192-41.738,15.934-5.423,3.779-10.872,7.832-15.291,12.688-19.641,21.583-43.743,26.424-71.042,19.693-6.116-1.508-12.366-3.245-17.912-6.118-10.47-5.425-20.955-5.7-31.968-2.588C2256.828,1173.117,2232.06,1172.551,2216.789,1167.842ZM2054.6,731.347c-1.167,1.425-1.863,1.88-1.935,2.42-3.784,28.233,4.957,51.137,28.9,67.5,4.675,3.194,9.77,5.856,14.1,9.454,4.785,3.979,9.773,8.179,13.16,13.286,10.515,15.849,25.249,22.954,43.807,23.533a98.753,98.753,0,0,1,14.816,1.635c7.6,1.4,8.105,1.282,8.7-6.149,1.082-13.591,2.167-27.184,3.023-40.791a22.952,22.952,0,0,0-7.389-18.944c-11.856-10.907-25.218-18.526-42.115-17.575a61.767,61.767,0,0,1-9.987-.072c-24.527-2.619-47.24-8.908-61.881-31.2A22.56,22.56,0,0,0,2054.6,731.347Z" transform="translate(0 0)" style="fill:#ffd64d"/><path d="M2798.477,1565.883c5.465,1.4,8.929,3.072,12.383,3.049,15.613-.1,31.3.127,46.817-1.272,25.807-2.327,50.239-10.062,73.262-22,23-11.924,42.229-28.124,54.243-51.445,19.925-38.672,17.173-76.615-6.136-112.883-16.895-26.29-40.28-44.976-69.938-55.459-.941-.333-2.142-.371-2.791-.994-1.081-1.038-2.662-2.6-2.466-3.646.225-1.207,2.009-2.659,3.369-3a40.284,40.284,0,0,1,7.921-.764,275.74,275.74,0,0,1,118.168,20.426c39.744,16.206,74.164,40.108,102.123,73.221,29.028,34.378,46.449,73.621,51.91,118.113,2.743,22.353.691,44.548-4.889,66.384-13.991,54.744-44.79,98.559-88.771,133.012a274.734,274.734,0,0,1-86.174,45.415,299.044,299.044,0,0,1-79.389,13.895c-12.846.534-25.7.83-39.668,1.269a57.9,57.9,0,0,0,5.425,4.91c22.5,15.674,47.82,25.073,74.188,31.206a288.972,288.972,0,0,0,52.248,7.539c12.045.537,24.292-3.229,36.433-5.174,3.458-.553,7.386-3.461,10.059.483,2.566,3.786-.884,6.945-2.953,9.775-11.384,15.57-26.544,27.11-42.254,37.735a320,320,0,0,1-88.133,41.87c-35.595,10.622-71.735,16.869-109.126,16.413-41.12-.5-80.02-9.3-116.279-28.441-42.857-22.62-76.18-55.4-100.8-97.228-14.5-24.639-25.213-50.664-31.153-78.6-1.865-8.772-2.772-17.747-4.188-26.618-.393-2.46-1.038-4.88-1.865-8.7-2.755,2.5-4.626,3.762-5.95,5.456-13.566,17.373-21.9,36.958-26.494,58.576-6.884,32.372-1.912,62.981,12,92.345,4.67,9.855,11.315,18.778,17.137,28.078,1.051,1.679,2.711,2.993,3.661,4.712.553,1,.8,3.059.22,3.6a8.125,8.125,0,0,1-4.284,1.577c-.877.124-1.886-.531-2.808-.9-33.286-13.449-61.988-33.084-85.495-60.613-25.486-29.848-41.008-64.07-45.057-102.72-2.17-20.716-1.055-41.956.407-62.83,2.119-30.26,5.116-60.493.463-90.652-4.846-31.411-17.3-59.485-40.978-81.493-16.568-15.4-33.4-30.555-50.678-45.144-32.56-27.488-65.454-54.582-98.369-81.647-13.631-11.208-28.516-21.024-41.3-33.093-14.281-13.482-32.616-20.611-47.366-33.134-12.679-10.764-25.541-21.339-38.737-31.455-7.643-5.858-16.056-10.726-24.214-15.9-10.6-6.721-17.606-15.838-20.763-28.192-3.971-15.535-7.6-31.022-7.522-47.219.053-10.429-3.009-20.237-6.6-30.057a179.215,179.215,0,0,1-8.644-31.676c-2.892-17.24,3.6-32.81,14.34-45.36,9.511-11.11,23.659-14.384,38.386-12.149,12.5,1.9,23.429,7.842,33.449,15.073,24.837,17.926,49.4,36.233,73.927,54.588,6.8,5.089,6.355,8.23-.96,12.568-2,1.187-4.151,2.129-6.206,3.232-13.862,7.439-20.515,18.71-18.507,31.322a33.834,33.834,0,0,0,28.822,27.943c21.2,2.892,42.478,3.95,63.649-.184a26.316,26.316,0,0,1,15.627,1.3,139.326,139.326,0,0,0,51.569,10.45c7.188.106,14.568-1.533,21.573-3.434,7.412-2.012,13.1-1.125,19.22,4.077,26.64,22.634,53.656,44.829,80.626,67.073q66.262,54.652,132.676,109.124c8.488,6.953,17.039,13.99,26.3,19.805,21.922,13.759,45.777,19.851,71.616,14.525,26.009-5.361,45.421-20.36,58.515-43.078,12.825-22.25,16.257-46.245,10.256-71.4-.233-.973-.8-2-.64-2.9.43-2.427.55-5.376,2.03-6.967.831-.892,4.675-.216,6.2.979,8.628,6.759,17.877,13.053,25.227,21.054a175.062,175.062,0,0,1,40.979,74.6,211.8,211.8,0,0,1,7.184,49.258c.555,23.291-2.229,45.837-10.242,67.732-6.508,17.78-15.99,33.642-29.574,46.964C2802.9,1560,2801.463,1562.186,2798.477,1565.883Z" transform="translate(0 0)" style="fill:#ffd64d"/><path d="M1811.693,9.566q8.383-1.308,16.868-2.21C1848.728,5.217,1868.792,1.919,1889,.4c12.515-.94,25.257-.08,37.811.987,17.226,1.465,34.356,4.018,51.551,5.877,26.618,2.878,52.436,9.225,77.817,17.528,34.755,11.369,67.352,27.226,96.84,48.843,28.571,20.945,54.29,44.9,75.246,73.853a345.71,345.71,0,0,1,43.836,80.426c8.5,22.437,14.314,45.628,18.7,69.326,5.2,28.1,5.807,56.254,5.171,84.57-.194,8.626-.519,17.411-2.277,25.81-5.793,27.683-10.366,55.829-18.9,82.686-15.277,48.065-36.548,93.664-65.312,135.405-7.921,11.494-16.306,22.681-24.8,33.763-5.749,7.5-9.5,7.568-16.44,1.242-20.911-19.048-42.06-37.844-62.65-57.235-16.466-15.506-32.655-31.352-48.222-47.754-16-16.861-15.487-15.606-8.463-38.932,6.509-21.617,18.913-40.353,30.716-59.277,8.625-13.829,17.388-27.648,27.164-40.665,13.853-18.447,2.045-44.068-20.125-47.208-8.2-1.161-16.549-1.344-24.836-1.866-8-.5-9.25-1.589-9.629-9.4-.178-3.657-.124-7.331-.049-11a188.427,188.427,0,0,0-23.374-95.948c-22.663-41.213-57.678-64.466-105.1-67.7-24.294-1.66-47.682,1.313-69.835,12.682a148.741,148.741,0,0,0-59.455,54.667c-16.506,26.41-24.265,55.616-25.627,86.2-.687,15.436,2.376,31.125,4.609,46.575,1.709,11.834,4.887,23.449,7.21,35.2,2.7,13.645-1.243,18.636-15.36,18.467a200.246,200.246,0,0,1-27.827-2.2c-19.724-3.021-39.387-6.48-59.008-10.124-18.966-3.522-37.9-7.244-56.743-11.38a287.969,287.969,0,0,1-29.67-8.355c-8.42-2.821-8.25-3-13.6,4.54-1.947,2.748-5.025,5.537-8.14,6.478-19.172,5.794-35.726,16-51.156,28.482-10.741,8.687-12.9,7.815-14.495-6.277-2.281-20.127-3.949-40.323-5.878-60.489.88-52.479,10.548-102.922,31.023-150.99a326.843,326.843,0,0,1,50.243-82.526c9.194-10.949,18.25-22.116,28.392-32.151,36.92-36.532,79.365-64.8,128.18-83.017a383.686,383.686,0,0,1,75.15-19.95" transform="translate(0 0)" style="fill:#ffd64d"/><path d="M2790.593,811.813c-7.241-2.529-14.286-2.393-21.365-1.344-48.8,7.23-95.485,21.71-140.257,42.172-42.549,19.446-82.92,42.837-119.669,71.875-18.765,14.828-36.305,31.236-54.011,47.356-6.863,6.248-12.643,13.682-18.945,20.551a24.239,24.239,0,0,1-4.285,4.168c-1.545,1-3.512,1.354-5.293,1.992-.4-2.054-1.68-4.43-1.063-6.11,5.741-15.624,11.207-31.393,17.9-46.615,17.138-38.987,40.587-74.246,66.811-107.552,23.083-29.317,47.771-57.321,77.663-80.126,13.755-10.5,27.736-20.694,41.63-31.006a43.424,43.424,0,0,1,4.188-2.728c2.591-1.493,5.743-3.734,7.876-.45.954,1.47-.18,5.065-1.407,7.053-6.989,11.323-14.663,22.237-21.334,33.737a81.867,81.867,0,0,0-7.8,19.391c-2.826,10.341,4.438,17.54,14.615,14.2a66.684,66.684,0,0,0,19.434-9.946c15.871-12.106,31.267-24.847,46.625-37.61,31.327-26.033,63.268-51.094,101.2-67.164,15.725-6.662,32.212-10.6,48.923-13.748a2.36,2.36,0,0,1,.987-.108c2.991.848,5.971,1.735,8.954,2.612-1.839,2.125-3.334,4.752-5.575,6.293-11.235,7.727-23.015,14.707-33.906,22.879-7.13,5.35-13.4,11.984-19.4,18.64-2.768,3.073-4.571,7.4-5.726,11.464-2.451,8.627,2.656,15.574,11.739,15.443a67.847,67.847,0,0,0,17.609-3.118c23.01-6.672,45.811-14.086,68.908-20.427,17.674-4.853,35.934-6.467,54.185-8.32,21.778-2.211,43.263-.125,64.607,2.709,23.434,3.111,46.338,9.26,68.68,17.242,44.34,15.84,84.917,38.706,121.951,67.487,15.967,12.408,29.917,27.429,44.577,41.477,1.6,1.536,1.839,4.5,2.709,6.8-2.416.606-5.147,2.265-7.2,1.652-16.261-4.861-33.166-3.8-49.627-4.266-20.166-.576-40.479,2.185-60.655,4.226-27.93,2.826-55.048,9.927-81.926,17.658a357.555,357.555,0,0,0-70.329,28.32,146.839,146.839,0,0,0-16.8,10.785c-5.39,3.918-10,3.547-15.48-.118-18.762-12.555-39.357-20.772-61.473-25.46-21.4-4.536-42.985-5.052-64.64-3.722-29.273,1.8-56.946,9.749-83.431,22.343a207.374,207.374,0,0,0-50.714,33.463c-14.188,12.9-26.527,27.931-38.976,42.621-28.057,33.107-52.447,68.938-75.491,105.611-14.7,23.387-28.485,47.422-41.321,71.879-14.54,27.7-27.556,56.2-41.249,84.344-1.016,2.087-1.851,4.359-3.287,6.126-3.031,3.731-6.534,4-11.412.3-7.154-5.431-13.882-11.418-20.9-17.03-12.229-9.775-24.555-19.428-36.806-29.175-2.082-1.656-3.994-3.527-5.982-5.3-3-2.678-3.567-5.442-.468-8.506,9.05-8.949,18.415-17.6,30.808-21.58,11.731-3.766,23.822-6.413,35.528-10.247,15.561-5.1,27.018-14.985,29.9-31.733a46.874,46.874,0,0,0-4.848-30.038c-11.086-21.133-26.439-39.107-42.033-56.906-1.1-1.251-2.361-2.352-3.509-3.56-7.113-7.486-7.044-8.658.21-16.328,41.811-44.208,88.29-82.817,138.732-116.821,41.365-27.886,85.084-51.078,131.957-68.166a388.725,388.725,0,0,1,65.34-18.061A29.1,29.1,0,0,0,2790.593,811.813Z" transform="translate(0 0)" style="fill:#ffd64d"/></svg>